<svg xmlns="http://www.w3.org/2000/svg" xmlns:xlink="http://www.w3.org/1999/xlink" version="1.1" id="Capa_1" x="0px" y="0px" viewBox="0 0 56.429 56.429" style="enable-background:new 0 0 56.429 56.429;" xml:space="preserve" width="512px" height="512px">
<g>
	<g>
		<path d="M56.303,15.935l-4.24-7.632c0.621-1.147,0.469-2.538-0.466-3.472c-0.924-0.925-2.297-1.08-3.461-0.459l-7.643-4.246    c-0.391-0.218-0.877-0.149-1.192,0.167L32.044,7.55c-0.254,0.254-0.353,0.624-0.258,0.97l2.569,9.418l-5.84,5.839    c-1.005-0.081-2.043,0.229-2.774,0.961L9.321,41.159c-0.659,0.659-1.022,1.538-1.022,2.476c0,0.837,0.304,1.619,0.836,2.247    l-8.841,8.84c-0.391,0.391-0.391,1.023,0,1.414c0.195,0.195,0.45,0.293,0.706,0.293s0.512-0.098,0.707-0.293l8.841-8.84    c0.628,0.532,1.41,0.835,2.247,0.835c0.937,0,1.815-0.363,2.475-1.022l16.421-16.42c0.659-0.659,1.022-1.538,1.022-2.475    c0-0.112-0.022-0.22-0.032-0.33l5.809-5.81l9.419,2.569c0.087,0.023,0.175,0.035,0.263,0.035c0.262,0,0.517-0.103,0.707-0.293    l7.257-7.257C56.451,16.813,56.52,16.326,56.303,15.935z M33.868,8.554l6.313-6.313l6.346,3.525L35.984,16.309L33.868,8.554z     M13.856,45.695c-0.563,0.563-1.559,0.563-2.121,0l-1-1c-0.281-0.281-0.437-0.658-0.437-1.06c0-0.403,0.155-0.779,0.437-1.061    l1.804-1.804l3.121,3.121L13.856,45.695z M17.074,42.477l-3.121-3.121l2.015-2.015l3.121,3.121L17.074,42.477z M20.503,39.048    l-3.121-3.121l2.215-2.214l3.121,3.121L20.503,39.048z M24.131,35.419l-3.121-3.121l2.214-2.214l3.121,3.121L24.131,35.419z     M30.277,29.274l-2.517,2.517l-3.122-3.121l2.517-2.517c0.103-0.103,0.221-0.182,0.346-0.249l1.019,0.14    c0.49,0.067,0.924,0.278,1.256,0.609l0.001,0.001c0.332,0.332,0.542,0.766,0.609,1.255l0.14,1.02    C30.459,29.053,30.379,29.172,30.277,29.274z M37.487,20.25L37.487,20.25l-5.657,5.657c-0.048-0.055-0.086-0.116-0.139-0.169l-1-1    c-0.052-0.052-0.115-0.089-0.17-0.137l5.655-5.656c0.001-0.001,0.003-0.002,0.004-0.003L48.844,6.279    c0.364-0.32,0.92-0.455,1.34-0.033c0.425,0.424,0.287,0.982,0.003,1.304L37.487,20.25z M47.875,22.56l-7.756-2.115L50.663,9.902    l3.525,6.346L47.875,22.56z" fill="#D80027"/>
	</g>
</g>
<g>
</g>
<g>
</g>
<g>
</g>
<g>
</g>
<g>
</g>
<g>
</g>
<g>
</g>
<g>
</g>
<g>
</g>
<g>
</g>
<g>
</g>
<g>
</g>
<g>
</g>
<g>
</g>
<g>
</g>
</svg>
