<svg version="1.1" id="Layer_1" xmlns="http://www.w3.org/2000/svg" xmlns:xlink="http://www.w3.org/1999/xlink" x="0px" y="0px"
	 viewBox="0 0 512 512" style="enable-background:new 0 0 512 512;" xml:space="preserve">
<circle style="fill:#C9E3F7;" cx="227.018" cy="284.976" r="227.018"/>
<path style="fill:#78B9EB;" d="M227.018,57.963c125.379,0,227.018,101.639,227.018,227.018S352.397,512,227.018,512"/>
<circle style="fill:#FFFFFF;" cx="227.018" cy="284.976" r="158.913"/>
<path style="fill:#FFDA44;" d="M227.018,126.069c87.765,0,158.913,71.146,158.913,158.913c0,87.765-71.148,158.913-158.913,158.913"
	/>
<circle style="fill:#FF9811;" cx="227.018" cy="284.976" r="90.807"/>
<path style="fill:#FF5023;" d="M227.018,194.174c50.152,0,90.807,40.654,90.807,90.807c0,50.152-40.656,90.807-90.807,90.807"/>
<polygon style="fill:#3C5D76;" points="512,106.386 512,72.334 463.746,72.334 487.874,48.206 463.794,24.126 439.667,48.254 
	439.667,0 405.615,0 405.615,82.307 231.317,256.604 227.018,284.982 255.396,280.683 429.693,106.386 "/>
<g>
</g>
<g>
</g>
<g>
</g>
<g>
</g>
<g>
</g>
<g>
</g>
<g>
</g>
<g>
</g>
<g>
</g>
<g>
</g>
<g>
</g>
<g>
</g>
<g>
</g>
<g>
</g>
<g>
</g>
</svg>
